<svg version="1.1" id="Layer_1" xmlns="http://www.w3.org/2000/svg" xmlns:xlink="http://www.w3.org/1999/xlink" x="0px" y="0px"
	 width="100%" viewBox="0 0 1181 1181" enable-background="new 0 0 1181 1181" xml:space="preserve">
<path fill="#FFFFFF" opacity="1.000000" stroke="none" 
	d="
M760.000000,1182.000000 
	C508.166656,1182.000000 256.833344,1181.990356 5.500038,1182.093506 
	C1.750829,1182.094971 0.906059,1181.249023 0.907012,1177.500000 
	C1.006285,786.833313 1.006285,396.166656 0.907012,5.500024 
	C0.906059,1.750931 1.750930,0.906059 5.500024,0.907012 
	C396.166656,1.006285 786.833313,1.006285 1177.500000,0.907012 
	C1181.249023,0.906059 1182.093994,1.750930 1182.093140,5.500023 
	C1181.993774,396.166656 1181.993774,786.833313 1182.093018,1177.500000 
	C1182.093994,1181.249023 1181.249390,1182.097290 1177.499878,1182.094238 
	C1038.500000,1181.982544 899.500000,1182.000000 760.000000,1182.000000 
z"/>
<path fill="#AF98AD" opacity="1.000000" stroke="none" 
	d="
M323.740417,477.750854 
	C332.022644,484.542755 341.104340,489.613434 350.847809,492.709015 
	C367.048187,497.856018 377.165649,509.221771 385.353912,523.100586 
	C386.869049,525.668701 388.313934,528.278259 389.987488,531.251587 
	C384.167511,537.477112 377.760986,542.695862 368.985901,544.546387 
	C363.498291,539.226868 359.783020,532.813477 357.669647,526.173706 
	C352.228912,509.080444 340.269257,498.584869 325.010986,491.016296 
	C304.572418,480.878021 296.680450,463.311279 295.863373,441.782745 
	C295.533234,433.084320 293.787537,425.002808 289.779999,417.331360 
	C284.915039,408.018402 280.612610,398.484650 277.702179,388.330475 
	C276.086670,382.694153 271.803497,378.972443 266.581177,376.877136 
	C246.907547,368.983765 233.861191,370.237152 216.651077,388.992554 
	C213.280289,392.665985 210.339798,396.743500 207.424316,400.794525 
	C202.079437,408.221191 194.705643,413.449188 187.793793,419.152924 
	C180.799591,424.924561 174.820602,431.541687 169.550873,438.890106 
	C160.434784,451.602203 150.525803,463.747345 142.545074,477.269440 
	C140.335922,481.012512 139.320374,485.325134 136.379745,489.070190 
	C131.606628,489.496185 131.789703,485.536285 130.401611,482.549438 
	C130.439819,481.893829 130.504700,481.636047 130.834747,481.080444 
	C135.758987,470.250702 142.116180,460.661011 148.066345,450.875000 
	C155.209473,439.126892 159.395386,426.764374 160.275269,412.923859 
	C161.020584,401.200439 162.465637,389.361084 166.647415,378.243042 
	C172.041092,363.902954 184.137711,356.056183 196.675766,348.879639 
	C203.417007,345.021057 209.498779,340.475739 213.620224,333.774689 
	C225.877823,313.845215 245.612488,311.452698 264.613739,319.023560 
	C282.886932,326.304291 292.657837,340.877167 296.805878,359.422272 
	C299.630188,372.049133 301.560394,384.875000 303.949188,397.600830 
	C304.873474,402.524963 306.404572,407.229187 309.030426,411.576996 
	C315.981232,423.085754 319.948029,435.370209 318.916565,449.049591 
	C318.320892,456.948853 321.552673,464.388641 322.165344,472.575073 
	C319.432434,473.580719 318.637726,471.400757 317.518707,469.895569 
	C313.514771,464.509857 310.694824,458.524017 308.457489,451.041046 
	C309.803040,460.441956 314.149231,467.018829 319.855499,472.855713 
	C321.243744,474.275726 322.897217,475.458557 323.740417,477.750854 
z"/>
<path fill="#7D5436" opacity="1.000000" stroke="none" 
	d="
M404.089722,568.996460 
	C410.814148,578.284363 417.446533,587.179810 424.462799,596.590149 
	C430.503479,585.294189 436.477081,574.743469 441.809540,563.878113 
	C444.298889,558.805786 448.515106,556.655212 453.167816,554.949951 
	C457.263367,553.448853 460.652100,555.541687 463.274170,560.902710 
	C467.074493,568.672668 470.607513,576.572876 474.352020,584.370728 
	C480.830505,597.862000 487.404083,611.307556 493.885773,624.797302 
	C494.963745,627.040833 495.997345,629.349426 496.667114,631.735840 
	C497.901520,636.134094 495.684631,640.385376 491.652008,641.899963 
	C487.579834,643.429565 484.172119,641.983948 481.947296,637.403564 
	C473.080902,619.150269 464.307190,600.851807 455.488373,582.575317 
	C454.850464,581.253357 454.125336,579.973511 453.440063,578.672729 
	C451.393707,578.996399 451.244720,580.740356 450.590790,581.938782 
	C445.569946,591.139709 440.548096,600.341614 435.670776,609.618958 
	C431.138977,618.239014 421.558075,622.267517 415.101349,610.989868 
	C414.607788,610.127808 413.955444,609.356567 413.178101,608.265564 
	C409.034210,606.526123 407.421814,602.699341 404.794891,599.902710 
	C403.469696,598.491882 402.554688,596.706909 400.628845,595.405334 
	C397.640686,594.993469 398.452911,597.321655 398.203278,598.560608 
	C395.210480,613.415283 391.589600,628.127319 388.153778,643.254639 
	C387.821655,644.305847 387.531189,644.987671 387.363983,646.097595 
	C387.238403,647.251770 387.099426,648.018921 386.867493,649.181152 
	C385.959808,652.455505 385.390930,655.425720 383.780365,658.019836 
	C380.948700,662.580750 376.448639,664.401306 371.829468,662.874268 
	C367.742798,661.523315 365.492828,657.729004 365.691895,652.540833 
	C365.756195,650.864502 366.015747,649.219482 366.542236,647.629761 
	C371.108765,633.841614 374.098969,619.647522 377.501892,605.134033 
	C379.335846,597.953491 380.498077,591.063110 381.408691,584.134094 
	C382.023804,579.453064 383.314178,575.027039 385.809540,570.544189 
	C389.588135,563.861572 392.465820,561.858704 396.785278,563.102661 
	C399.819672,563.976501 402.324860,565.811523 404.089722,568.996460 
z"/>
<path fill="#7C5233" opacity="1.000000" stroke="none" 
	d="
M1021.856506,654.866699 
	C1002.930664,666.425476 980.315674,656.864563 976.420776,635.482300 
	C973.420715,619.012268 977.186035,604.184875 991.027344,593.501892 
	C1000.882812,585.895264 1018.253479,586.177490 1028.167603,593.711365 
	C1034.165527,598.269287 1037.025513,604.987488 1038.100342,612.183044 
	C1040.640503,629.188660 1036.417725,643.864441 1021.856506,654.866699 
z"/>
<path fill="#7C5233" opacity="1.000000" stroke="none" 
	d="
M768.891113,660.092041 
	C755.331299,639.726685 766.320984,607.211975 788.577637,601.404480 
	C798.985352,598.688721 808.680786,601.072449 817.551575,606.961975 
	C822.332275,610.135986 824.408691,615.261780 825.578064,620.374390 
	C829.430359,637.217224 825.619629,652.241211 812.500488,663.866272 
	C799.022156,675.809631 780.912231,674.053833 768.891113,660.092041 
z"/>
<path fill="#B19BAF" opacity="1.000000" stroke="none" 
	d="
M160.035706,730.843628 
	C157.701843,727.042358 153.520615,725.652100 150.131699,723.436096 
	C135.238464,713.697571 120.765594,703.579407 107.628784,691.368530 
	C93.367645,678.112610 89.761887,662.010925 91.368729,643.811584 
	C92.097633,635.555908 93.640266,627.365479 94.208412,619.103821 
	C94.941429,608.444763 100.626526,599.950073 105.818192,591.335388 
	C113.318703,578.889587 116.474945,565.559204 117.521919,551.154175 
	C118.950386,531.500427 120.139931,511.704712 126.413818,492.353882 
	C127.024277,491.675873 127.494339,491.581512 128.317963,491.946594 
	C130.370331,494.950684 132.237274,497.667542 133.188705,501.278320 
	C133.276398,510.721893 130.565018,519.419922 129.801636,528.378784 
	C128.758438,540.621643 126.844528,552.761414 127.850273,565.175659 
	C128.369797,571.588257 127.077370,578.126526 124.356384,584.175720 
	C123.877937,585.239380 123.490654,586.376038 122.826393,587.316833 
	C111.387482,603.517273 111.644806,621.529236 114.537277,639.988403 
	C115.723419,647.558105 117.424995,655.055481 118.359436,662.644226 
	C120.557930,680.498779 131.309662,692.899475 144.093704,704.032104 
	C149.884171,709.074585 156.533661,712.957703 163.436157,717.130554 
	C164.698730,722.325806 161.815491,726.293945 160.035706,730.843628 
z"/>
<path fill="#B09AAD" opacity="1.000000" stroke="none" 
	d="
M359.127716,761.413818 
	C350.156372,764.542297 345.396912,771.961792 340.304138,778.856201 
	C333.549469,788.000488 326.575439,796.909790 316.412201,802.485107 
	C302.182007,810.291565 287.040466,809.675659 271.775879,806.548218 
	C249.808548,802.047424 229.099503,794.023315 209.159988,783.889038 
	C196.823273,777.618835 189.116699,766.709473 181.194427,756.022156 
	C177.339142,750.821289 173.612717,745.524719 169.741409,740.335999 
	C168.685669,738.920959 167.817383,737.140137 165.335083,736.915283 
	C164.680649,732.308289 166.261749,728.333984 169.418793,724.630554 
	C172.355835,724.510864 174.200607,726.032959 175.720795,727.776550 
	C180.857330,733.667847 185.968445,739.536560 189.806839,746.479004 
	C194.541016,755.041626 201.018478,762.265625 209.453278,767.368958 
	C225.711578,777.205811 242.040619,786.855835 261.269501,790.088135 
	C275.618561,792.500061 289.880859,792.172302 303.844025,788.583496 
	C322.391998,783.816284 335.450470,771.499023 345.713989,755.843262 
	C347.336212,753.368774 348.277283,750.372437 351.349731,748.590820 
	C354.197754,748.738220 354.662109,750.841858 355.334991,752.607117 
	C356.439331,755.504333 358.312439,758.040466 359.127716,761.413818 
z"/>
<path fill="#7D5538" opacity="1.000000" stroke="none" 
	d="
M1085.236328,631.338257 
	C1094.529541,621.165710 1096.681763,607.212769 1091.016968,595.323242 
	C1088.221924,589.456482 1089.269775,584.616394 1093.821899,582.367126 
	C1098.321045,580.144043 1102.961060,582.361633 1105.854248,588.117554 
	C1114.609985,605.536682 1109.909668,631.511414 1095.653687,644.487671 
	C1081.436401,657.428650 1062.802734,654.010437 1054.844727,636.529358 
	C1048.844727,623.349182 1047.107910,609.023438 1045.958496,594.739136 
	C1045.475708,588.739380 1048.757080,585.284790 1053.675293,585.031555 
	C1058.805298,584.767395 1062.275391,588.002197 1062.722900,594.182861 
	C1063.410522,603.678772 1064.935791,613.026978 1066.883301,622.323303 
	C1067.155518,623.623108 1067.484375,624.918823 1067.897217,626.180359 
	C1071.203979,636.284546 1076.332520,637.905090 1085.236328,631.338257 
z"/>
<path fill="#7D5437" opacity="1.000000" stroke="none" 
	d="
M880.574097,614.394287 
	C879.745789,608.420959 881.554565,604.930359 885.789734,603.658630 
	C890.264160,602.315002 894.086304,604.501099 896.335815,609.690552 
	C903.962219,627.284119 896.437073,654.408997 880.814148,665.639221 
	C864.534912,677.341003 846.220459,671.399231 840.464905,652.192810 
	C836.511047,638.998596 836.287170,625.254456 836.246094,611.604065 
	C836.228088,605.639404 840.120361,601.992615 845.050049,602.158752 
	C850.112488,602.329468 853.285095,605.921204 853.130554,612.128357 
	C852.868896,622.639465 853.231934,633.102783 854.871399,643.482483 
	C855.573853,647.930237 856.526611,653.009949 861.507507,654.328125 
	C866.532410,655.657898 870.971802,652.964417 874.307617,649.161499 
	C883.210938,639.011597 885.355957,627.506958 880.574097,614.394287 
z"/>
<path fill="#7D5436" opacity="1.000000" stroke="none" 
	d="
M507.094116,580.304932 
	C509.878754,576.641541 513.208740,575.819641 517.044250,577.376038 
	C521.478699,579.175537 522.619141,582.990662 522.125366,587.221680 
	C521.079285,596.185547 521.268555,605.163879 521.359924,614.145081 
	C521.400757,618.149109 521.811523,622.116211 523.548828,625.830139 
	C525.158386,629.270874 527.651489,630.878662 531.545227,630.129578 
	C542.045532,628.109558 546.353516,620.055786 549.422974,611.224792 
	C551.523499,605.181458 551.489197,598.830322 549.591431,592.549072 
	C547.932800,587.059387 549.968079,582.521851 554.421570,581.085754 
	C559.252441,579.527954 563.374268,582.104248 565.291565,587.879822 
	C571.211731,605.713013 562.857605,630.949524 547.563110,641.434998 
	C529.987366,653.484314 511.240906,646.334961 506.644073,625.601685 
	C503.733276,612.472961 504.904358,599.098389 505.243286,585.808655 
	C505.287598,584.071899 506.329315,582.360596 507.094116,580.304932 
z"/>
<path fill="#7D5538" opacity="1.000000" stroke="none" 
	d="
M927.309570,573.997070 
	C927.314758,573.202454 927.311401,572.869324 927.320251,572.536499 
	C927.524841,564.842529 930.160095,561.165283 935.482483,561.144592 
	C940.042480,561.126831 942.028442,564.361694 941.759155,572.658691 
	C941.638428,576.379395 942.859497,576.820374 946.092651,576.135864 
	C951.459656,574.999512 956.913635,574.275269 962.329346,573.367615 
	C965.978577,572.756042 968.604187,574.101379 969.770447,577.625305 
	C970.985352,581.295654 969.735535,584.259766 966.334534,586.030090 
	C960.898438,588.859741 954.820374,589.117249 948.913940,589.979004 
	C941.674255,591.035217 940.989075,591.980591 941.481995,599.345337 
	C942.738037,618.113770 943.931152,636.883179 948.136841,655.299500 
	C948.320557,656.103882 948.389709,656.950562 948.391418,657.777771 
	C948.400757,662.362427 945.768311,664.939575 941.584656,665.719971 
	C937.213440,666.535156 934.954346,663.617920 934.298950,659.899780 
	C932.596069,650.238098 931.174133,640.523560 929.818237,630.805176 
	C928.322083,620.081543 927.520996,609.283142 927.328125,598.462952 
	C927.257263,594.485291 925.736633,594.108948 922.404907,595.081665 
	C918.584290,596.197144 914.662354,597.182251 910.635376,597.113464 
	C906.930725,597.050232 903.574585,596.132019 902.785889,591.753235 
	C902.009033,587.440125 904.139160,584.766113 907.955627,583.198364 
	C912.639709,581.274048 917.688293,580.944153 922.604919,580.315674 
	C926.533447,579.813538 927.802551,578.071655 927.309570,573.997070 
z"/>
<path fill="#7D5538" opacity="1.000000" stroke="none" 
	d="
M717.169434,621.004028 
	C717.455933,614.514771 717.535583,608.506409 718.083557,602.541077 
	C718.428223,598.789185 717.167969,597.883240 713.644348,598.491211 
	C709.716980,599.168762 705.728088,599.673401 701.707458,599.239807 
	C697.894409,598.828552 694.787415,597.361023 694.382568,593.109192 
	C693.963013,588.702881 696.704773,586.434692 700.589844,585.280579 
	C705.443970,583.838501 710.479736,583.842712 715.457031,583.777954 
	C719.060730,583.730957 720.557861,582.280945 720.628784,578.772644 
	C720.672241,576.623047 720.929993,574.432922 721.441895,572.347046 
	C722.508545,568.000854 726.166382,565.518738 730.365479,566.151794 
	C734.886536,566.833374 735.457520,570.175415 735.647278,573.930481 
	C735.780396,576.563782 733.744934,579.957275 735.526245,581.531067 
	C737.663025,583.418823 741.263000,581.839539 744.220276,581.798767 
	C747.878906,581.748352 751.533630,581.351868 755.188110,581.079773 
	C759.027893,580.793823 761.788513,582.220703 762.558411,586.171875 
	C763.350220,590.234863 761.391113,592.934692 757.651672,594.331726 
	C753.370239,595.931335 748.829224,595.904907 744.347961,596.208313 
	C741.858032,596.376831 739.346130,596.407043 736.885620,596.776489 
	C733.862732,597.230347 732.384766,599.017822 732.241699,602.253174 
	C731.380188,621.731384 730.433899,641.206604 732.817505,660.646301 
	C733.289062,664.491882 732.351685,667.596191 728.905212,669.619080 
	C724.492920,672.208923 720.053772,670.404968 718.951233,665.395264 
	C717.510071,658.846741 717.878113,652.126953 717.588074,645.482056 
	C717.239624,637.498108 717.285522,629.496887 717.169434,621.004028 
z"/>
<path fill="#AF99AD" opacity="1.000000" stroke="none" 
	d="
M400.993713,595.044983 
	C406.361206,597.872498 408.431122,603.675659 412.908813,607.658691 
	C410.466064,610.745850 412.782776,613.695251 412.847382,616.483582 
	C413.179749,630.833008 411.902313,645.012756 409.048065,659.040527 
	C405.703369,675.478638 403.743042,692.093750 401.824188,708.739624 
	C400.340698,721.608582 397.157288,733.935669 386.452240,742.815247 
	C381.567902,746.866699 376.224518,750.175659 370.810425,753.414490 
	C368.824921,754.602234 366.698151,755.620605 364.993256,757.755127 
	C360.252380,752.917725 357.915558,746.977234 357.068634,740.023987 
	C357.904877,737.506287 359.529480,736.037537 361.070343,734.532715 
	C367.499359,728.253723 373.601746,721.674805 379.603912,714.985535 
	C387.797333,705.854187 391.076569,694.745483 392.188629,683.021729 
	C393.596100,668.183472 397.220428,653.858765 401.003235,639.554626 
	C404.533722,626.204590 404.810760,612.961792 400.977875,599.665039 
	C400.566711,598.238586 400.022217,596.798340 400.993713,595.044983 
z"/>
<path fill="#80593D" opacity="1.000000" stroke="none" 
	d="
M169.876694,724.859131 
	C167.982086,728.710693 166.449661,732.444092 164.943588,736.544495 
	C161.042206,751.400146 158.355255,766.108521 156.893234,781.055542 
	C156.564072,784.420837 157.198349,785.940735 160.949783,786.785828 
	C172.349350,789.353821 181.130432,796.115784 187.354736,805.866760 
	C192.152176,813.382324 189.888046,818.425720 181.346909,820.733337 
	C162.093552,825.935364 147.115631,812.204285 149.118423,792.216980 
	C151.163712,771.805420 153.652374,751.549438 159.556549,731.432251 
	C160.750061,726.823914 161.626144,722.532532 163.907394,718.346008 
	C162.866760,716.564941 163.477051,715.107849 163.962402,713.740051 
	C168.454773,701.079834 174.612442,689.251770 181.981735,678.043518 
	C182.889359,676.663147 184.113663,675.528076 185.895691,674.472046 
	C189.688705,673.871277 191.404266,675.564758 191.840240,679.212158 
	C191.224701,681.904053 189.900192,683.827148 188.694519,685.805054 
	C181.177231,698.137085 175.330063,711.259644 169.876694,724.859131 
z"/>
<path fill="#7D5538" opacity="1.000000" stroke="none" 
	d="
M574.719727,646.157837 
	C572.713501,642.835815 573.264099,639.686340 574.189880,636.639709 
	C580.555176,615.692261 582.698975,594.260498 581.805481,572.453552 
	C581.738586,570.820923 581.929504,569.095825 582.408325,567.539062 
	C583.563232,563.784302 586.172119,561.697083 590.204773,561.828918 
	C594.477295,561.968689 595.859192,565.091553 596.236450,568.555298 
	C597.323242,578.532898 596.741821,588.537537 595.914978,598.494995 
	C595.129700,607.951660 593.955872,617.394958 591.802734,626.648743 
	C590.920166,630.442261 591.505127,631.688354 595.677124,631.329834 
	C603.914856,630.621887 611.949219,632.062378 619.665894,635.020386 
	C621.824829,635.847961 623.951294,636.899658 625.870239,638.181458 
	C628.843506,640.167480 630.853638,642.761536 629.030029,646.604919 
	C627.303162,650.244507 622.497559,652.573242 618.974243,650.892944 
	C608.090820,645.702576 596.994690,644.949646 585.384827,647.936157 
	C581.938843,648.822571 578.080444,649.372620 574.719727,646.157837 
z"/>
<path fill="#80593D" opacity="1.000000" stroke="none" 
	d="
M357.827667,740.220642 
	C357.672455,744.803955 360.664764,747.850281 361.906891,751.524658 
	C362.588623,753.541138 363.405426,755.511963 364.429138,757.716675 
	C371.909332,772.757019 379.932922,787.108276 389.202332,800.771240 
	C391.475800,804.122375 393.247223,804.720276 396.731110,802.339783 
	C404.118469,797.291992 412.368011,794.232849 421.362976,793.508057 
	C429.389923,792.861267 436.015320,795.305298 437.339844,799.990967 
	C439.374268,807.187805 434.001862,810.908081 429.350708,814.614929 
	C425.179199,817.939636 420.519409,820.533936 415.418579,822.269592 
	C404.087128,826.125183 397.419983,823.862549 390.397766,814.148865 
	C378.572388,797.791199 368.151276,780.612000 359.272675,762.087769 
	C356.230499,758.006104 354.782990,753.507080 352.402374,749.154053 
	C347.039032,741.700439 344.853485,733.148743 341.551025,725.094910 
	C340.551300,722.656738 339.772400,720.122253 338.981659,717.178345 
	C338.661835,712.593811 339.510590,709.004089 344.448303,707.543518 
	C347.634979,711.640320 348.580200,716.427307 350.258057,720.885742 
	C352.651489,727.245544 355.511444,733.419800 357.827667,740.220642 
z"/>
<path fill="#825C42" opacity="1.000000" stroke="none" 
	d="
M369.178680,544.030396 
	C376.163239,542.061096 381.251373,537.472412 386.905701,533.845398 
	C387.874695,533.223816 388.839203,532.595154 389.994751,531.802124 
	C397.031982,527.043701 402.929016,521.437073 407.579559,514.639587 
	C418.227966,499.075195 430.031921,484.467163 443.419586,471.184082 
	C445.931976,468.691315 446.961151,466.348236 446.018341,462.830963 
	C445.337982,460.292908 445.442993,457.538574 446.635956,455.002838 
	C448.376709,451.302551 450.543121,450.673584 453.184967,453.755096 
	C454.920471,455.779449 455.720734,454.180206 456.832123,453.628937 
	C460.191956,451.962433 463.597870,450.115570 466.844208,453.589264 
	C469.522308,456.455048 468.822601,461.645966 465.487152,465.427155 
	C463.258575,467.953583 460.722046,470.351776 457.602051,471.431580 
	C448.295593,474.652313 442.345032,481.866577 436.180267,488.806122 
	C428.214630,497.772827 420.840729,507.226349 414.202332,517.226135 
	C408.688721,525.531616 401.166626,531.822754 393.423706,538.408203 
	C391.541840,542.317444 387.687469,543.266357 384.860992,545.465393 
	C381.582611,548.016113 377.776733,549.808716 374.170227,552.545288 
	C368.265747,554.731323 363.522034,558.408203 358.075928,560.687683 
	C356.265167,561.445557 354.477875,562.298645 352.124084,562.607910 
	C349.090179,561.662659 348.174530,559.628235 348.270142,556.626709 
	C350.192749,553.280273 353.299927,552.029358 356.207550,550.593201 
	C360.460510,548.492432 364.549408,546.086975 369.178680,544.030396 
z"/>
<path fill="#825C42" opacity="1.000000" stroke="none" 
	d="
M132.163177,500.783691 
	C130.691284,497.853577 129.383774,495.256622 127.942596,492.331726 
	C126.426918,489.869415 125.024475,487.746674 123.994659,485.042114 
	C123.725479,484.316620 123.500137,483.935730 123.128799,483.256775 
	C118.978874,477.265594 116.741974,470.712646 113.908768,464.070190 
	C113.570862,463.075439 113.288010,462.433533 112.898155,461.457031 
	C112.462822,460.559631 112.096161,460.015930 111.858719,459.056396 
	C111.514259,458.092560 111.230888,457.449524 110.837296,456.472382 
	C110.253113,455.276306 109.833313,454.388611 109.448051,453.182770 
	C109.279617,452.497650 109.126076,452.107178 108.885406,451.414124 
	C107.841034,449.661407 107.315109,448.040527 106.874298,446.050262 
	C106.566406,445.074127 106.304527,444.415466 105.946442,443.415649 
	C101.117477,432.173523 98.204292,420.688660 95.112450,409.268768 
	C94.685112,407.690369 93.974831,406.172180 93.723724,404.139526 
	C92.913589,402.942169 92.213493,402.119354 91.282181,401.069641 
	C90.177925,400.126770 89.324326,399.392731 88.633064,398.074097 
	C88.501717,397.762787 88.211388,397.385895 88.090836,397.180786 
	C87.502319,396.499176 87.072594,395.993347 86.637299,395.087860 
	C86.513527,394.778748 86.234474,394.371094 86.115829,394.154419 
	C85.509407,393.494873 85.107689,392.990936 84.809006,392.045288 
	C84.538872,391.355469 84.340462,390.983398 84.035805,390.313049 
	C83.541176,389.605103 83.219803,389.157471 83.124420,388.305573 
	C82.455353,385.644592 81.892830,383.257172 82.899429,380.405090 
	C82.858566,379.852478 82.683838,379.692200 82.864563,379.520508 
	C83.695992,378.822388 84.171959,378.135773 84.868912,377.226440 
	C86.603012,375.662811 88.195633,374.586700 90.727707,375.623840 
	C91.937645,376.409332 92.781662,376.992249 93.823227,377.812225 
	C95.775307,379.030792 95.918068,381.971069 98.944138,381.750305 
	C100.346024,380.961914 101.452057,380.869965 102.857872,381.689606 
	C103.458038,382.383423 103.798622,382.836945 103.969292,383.684875 
	C104.033279,384.735809 104.069878,385.503998 104.069801,386.655365 
	C103.995659,387.616821 103.864769,388.171600 103.553947,388.976807 
	C102.569412,390.918243 101.647346,392.579712 100.506630,394.524597 
	C100.359375,395.032867 100.430786,395.257751 100.148392,395.492188 
	C99.645058,396.362518 99.495522,397.223328 99.410568,398.413788 
	C99.565636,399.314636 99.869278,399.820892 100.007416,400.672913 
	C100.765770,403.651764 101.492958,406.344788 102.322067,409.405701 
	C102.629486,410.389771 102.917953,410.979401 103.046066,411.953918 
	C103.909882,415.048615 104.744751,417.818939 105.675705,420.966827 
	C106.234184,421.313263 106.495399,421.516388 106.218002,421.973328 
	C106.105888,422.497345 106.299744,423.038452 106.664421,424.194214 
	C106.955650,425.249298 107.076057,425.689728 107.305328,426.454865 
	C107.627647,427.396057 107.931786,427.979431 108.143906,428.939301 
	C108.509338,430.199585 108.815521,431.138611 109.226028,432.434357 
	C113.340096,442.629608 116.549271,452.775665 120.895256,462.492310 
	C122.250443,465.522247 124.015991,468.370483 125.071625,471.929932 
	C125.333313,472.687408 125.540504,473.073883 125.875168,473.763733 
	C127.001884,475.064209 127.707230,476.227875 128.050201,477.960419 
	C128.194122,478.495758 128.302399,478.687714 128.563324,479.172882 
	C129.927185,479.793976 129.879211,481.143829 130.739807,482.138977 
	C132.163940,484.636932 133.488571,486.833038 135.135956,489.048645 
	C138.407944,490.645172 139.013763,493.955505 140.679001,496.434662 
	C144.773590,502.530609 150.157745,507.507751 154.783997,513.622314 
	C156.522614,516.948792 156.023987,519.528564 152.968536,521.750244 
	C150.578491,522.164368 149.092087,521.130737 147.720657,519.869507 
	C141.710190,514.341919 136.414886,508.224396 132.163177,500.783691 
z"/>
<path fill="#E5CFCF" opacity="1.000000" stroke="none" 
	d="
M876.506226,339.318146 
	C881.079041,337.182861 885.573975,336.042358 890.116089,335.043518 
	C892.263611,334.571259 895.266846,335.072632 895.827271,332.249756 
	C896.349060,329.620850 894.378540,327.578278 892.417908,325.959625 
	C890.408508,324.300629 888.157654,323.231781 885.564514,324.757935 
	C884.571655,325.342255 883.646667,326.057648 882.749695,326.785889 
	C880.698730,328.450897 878.304077,328.846466 876.391418,327.161774 
	C874.152405,325.189667 874.851013,322.653107 876.390808,320.380371 
	C879.667725,315.543732 888.187073,313.423676 893.972961,316.007019 
	C903.662476,320.333282 907.810242,330.487457 904.619385,342.528168 
	C902.406311,350.879120 899.118042,358.870422 895.844910,366.844452 
	C894.736694,369.544403 893.043945,371.491211 889.289490,370.357635 
	C884.683594,368.966980 879.769897,370.526947 874.959351,369.279175 
	C869.136780,367.768890 864.841187,365.047363 863.519958,358.930664 
	C862.310547,353.331665 864.815002,348.834137 868.591614,345.109741 
	C870.807678,342.924377 873.633057,341.356903 876.506226,339.318146 
z"/>
<path fill="#E5CFCF" opacity="1.000000" stroke="none" 
	d="
M831.625610,376.565857 
	C831.308777,379.640167 831.326355,382.314087 830.909180,384.918396 
	C830.420959,387.966278 829.384277,391.222565 825.500793,390.761566 
	C821.741089,390.315277 821.733093,387.011780 822.080688,384.121185 
	C824.526367,363.781372 827.422363,343.494141 829.081726,323.063049 
	C829.277771,320.648834 830.254700,318.435822 832.582397,317.395447 
	C835.082031,316.278259 836.633484,317.944092 837.925720,319.817139 
	C838.592773,320.783966 839.459839,320.868042 840.532654,320.702118 
	C853.584656,318.683411 861.385071,329.629303 861.957581,339.439575 
	C862.641968,351.165558 853.280640,361.673981 842.171570,361.972229 
	C839.263000,362.050323 834.454956,360.900360 833.810547,362.092896 
	C832.202026,365.069702 832.466614,369.065918 832.017273,372.657745 
	C831.873230,373.809113 831.847473,374.975250 831.625610,376.565857 
z"/>
<path fill="#E5CFCF" opacity="1.000000" stroke="none" 
	d="
M800.762573,358.038940 
	C795.399475,357.189880 793.329407,358.896942 793.932312,364.177765 
	C794.590210,369.939697 793.719971,375.774536 794.468201,381.610809 
	C794.839600,384.507019 793.739380,387.830383 789.725647,387.966614 
	C785.828491,388.098907 785.110352,385.130066 785.102844,382.179535 
	C785.049072,361.046814 786.567993,339.937042 786.035095,318.793274 
	C785.924988,314.427673 789.525208,313.982574 791.907227,315.348053 
	C795.397766,317.349030 798.472351,316.430664 801.921997,316.230347 
	C809.131287,315.811646 817.557373,323.157623 819.872375,331.262573 
	C823.477661,343.884247 814.599060,356.622131 800.762573,358.038940 
z"/>
<path fill="#E5CFCF" opacity="1.000000" stroke="none" 
	d="
M719.523804,840.246582 
	C724.160339,838.947754 728.368225,837.433350 732.948303,838.757507 
	C735.888306,839.607483 737.929138,839.004883 738.496765,835.283142 
	C739.343323,829.733093 740.706726,824.260742 741.896057,818.765198 
	C742.174622,817.478088 742.606750,816.220825 743.020691,814.967102 
	C743.919861,812.243835 745.910217,811.515015 748.521057,812.104248 
	C751.189575,812.706482 751.272339,814.916565 750.927612,816.857544 
	C749.656311,824.015747 748.154114,831.132812 746.758057,838.269104 
	C744.791931,848.319702 742.792114,858.364197 740.905884,868.429871 
	C739.786987,874.399963 738.545959,875.412415 731.990479,876.020081 
	C728.056030,876.384766 724.189453,877.730774 720.190369,876.536499 
	C712.484253,874.235413 706.651611,869.740234 705.220093,861.529846 
	C703.766296,853.191528 708.072327,847.224304 714.799438,842.801025 
	C716.180725,841.892883 717.712280,841.213318 719.523804,840.246582 
z"/>
<path fill="#E5CFCF" opacity="1.000000" stroke="none" 
	d="
M597.855835,376.825867 
	C606.482239,381.081482 611.303040,387.309845 611.094727,396.996399 
	C611.003357,401.243317 609.050232,404.535797 606.243530,407.021576 
	C599.282104,413.187134 591.217590,416.742889 581.615662,414.874420 
	C578.986145,414.362732 576.464539,413.256592 574.758972,411.074799 
	C573.429138,409.373657 572.080566,407.407745 574.216309,405.322723 
	C576.007141,403.574402 577.893921,402.758148 580.454407,404.190460 
	C586.732544,407.702332 594.939636,405.897430 599.226318,400.131744 
	C601.776550,396.701569 601.786194,393.015533 599.636169,389.375793 
	C597.494812,385.750702 594.159180,385.476227 590.475037,386.315521 
	C587.891602,386.904053 585.276123,387.364288 582.713440,388.029907 
	C570.743225,391.138977 563.181458,379.381500 566.587097,368.306549 
	C569.079773,360.200500 575.120911,354.879974 583.309326,352.512268 
	C585.919189,351.757599 589.719238,350.244629 590.820312,354.518890 
	C591.800293,358.323364 589.120911,360.190033 585.635925,361.056458 
	C579.704834,362.530975 576.174194,366.163666 575.278687,372.390686 
	C574.914917,374.920105 575.168335,376.918610 577.110107,378.707977 
	C579.096497,380.538544 580.966675,379.826904 583.096619,379.023651 
	C587.710876,377.283539 592.269165,374.877258 597.855835,376.825867 
z"/>
<path fill="#E5CFCF" opacity="1.000000" stroke="none" 
	d="
M976.829712,832.088379 
	C971.255920,835.269470 965.462830,834.501953 960.169250,829.529297 
	C951.939636,821.798767 946.663330,812.323303 945.150635,801.059937 
	C944.388062,795.381958 946.307190,790.139282 949.934570,785.801514 
	C954.708252,780.093201 963.993713,780.914368 969.700562,787.313416 
	C970.577332,788.296509 971.286804,789.436646 972.015747,790.542358 
	C977.863403,799.412292 977.485901,801.800964 969.248169,808.228882 
	C968.465515,808.839600 967.680237,809.447876 966.879578,810.034546 
	C959.507385,815.436646 959.492249,817.914307 966.806091,823.269165 
	C970.228516,825.774902 972.997620,825.155762 974.756531,821.189270 
	C975.894287,818.623352 976.548401,815.845337 977.461304,813.176758 
	C978.259521,810.843628 979.819641,809.528687 982.381165,810.042297 
	C985.145813,810.596558 986.335388,812.566040 985.915466,815.181335 
	C984.869080,821.697632 982.728027,827.717590 976.829712,832.088379 
z"/>
<path fill="#7D5538" opacity="1.000000" stroke="none" 
	d="
M658.748657,622.081909 
	C657.234985,630.865662 655.787476,639.217957 654.308411,647.564758 
	C654.048035,649.034363 653.855347,650.564270 653.286499,651.921875 
	C651.655884,655.813843 648.537354,657.490112 644.464844,656.718750 
	C640.674255,656.000793 638.915955,653.312378 638.948792,649.500305 
	C639.000793,643.461975 641.100708,637.770935 642.019226,631.871643 
	C643.884338,619.892456 645.999084,607.950684 648.136230,596.015930 
	C649.197693,590.087769 652.715210,587.263855 657.537659,588.100281 
	C662.052246,588.883362 664.095032,592.525330 663.068054,598.618469 
	C661.770569,606.316040 660.236206,613.973755 658.748657,622.081909 
z"/>
<path fill="#E5CFCF" opacity="1.000000" stroke="none" 
	d="
M662.924438,810.695557 
	C663.382629,817.176941 662.715515,822.922729 659.472656,828.344299 
	C657.488281,831.661926 654.890625,832.496704 651.536499,831.856506 
	C647.157349,831.020691 642.730896,830.237305 638.502136,828.879028 
	C635.770935,828.001648 634.803894,828.886230 634.404724,831.230835 
	C633.961853,833.832581 633.335144,836.470703 633.415955,839.073486 
	C633.486694,841.351196 634.851013,842.998901 637.594727,843.088379 
	C640.889221,843.195740 643.753113,841.973083 646.653931,840.721985 
	C649.316589,839.573608 652.156311,839.291992 653.663818,842.136780 
	C655.087952,844.824219 653.090759,846.862305 650.964661,848.382141 
	C643.652405,853.609253 631.553528,853.372437 627.252014,847.582947 
	C623.169373,842.088074 623.749634,835.772034 625.354492,829.519226 
	C627.765686,820.125244 632.277344,812.044495 639.778381,805.666565 
	C647.799316,798.846741 658.609192,800.909973 662.924438,810.695557 
z"/>
<path fill="#E5CFCF" opacity="1.000000" stroke="none" 
	d="
M776.097046,829.760254 
	C782.500305,836.093689 781.302734,843.741943 780.664246,851.146912 
	C780.408020,854.118225 777.969055,855.558716 775.057922,855.974548 
	C770.476074,856.629028 765.896729,857.300598 761.314087,857.949341 
	C760.208740,858.105774 758.945312,857.756470 758.282898,859.114380 
	C757.517334,860.683594 759.792175,869.439087 761.364380,870.808044 
	C764.499695,873.538025 767.012573,871.010498 769.456055,869.612976 
	C771.142395,868.648438 772.466553,867.018921 773.876282,865.610352 
	C775.625000,863.862854 777.779480,863.199097 779.704346,864.663574 
	C781.868652,866.310303 781.719971,869.048767 780.268738,870.962280 
	C776.797424,875.539429 772.357605,879.217896 766.767578,880.769104 
	C760.328308,882.556091 753.833984,878.835022 751.579529,871.817627 
	C747.439270,858.930664 747.879944,846.311157 755.645996,834.666504 
	C760.867126,826.837830 767.155884,825.315674 776.097046,829.760254 
z"/>
<path fill="#E5CFCF" opacity="1.000000" stroke="none" 
	d="
M971.872559,355.403748 
	C971.729187,361.819855 969.375488,367.022095 966.053833,371.920502 
	C963.975159,374.985779 961.125427,374.169769 958.437378,373.597504 
	C954.238953,372.703674 950.062744,371.643768 945.960022,370.384369 
	C943.462341,369.617645 942.175415,370.274902 941.597656,372.742310 
	C941.220703,374.352356 940.630066,375.917145 940.322510,377.537811 
	C939.385437,382.475372 942.592468,385.536591 947.468140,384.310669 
	C949.704407,383.748352 951.830017,382.731384 954.073792,382.217041 
	C956.807739,381.590302 959.659363,381.655121 960.735718,384.860443 
	C961.741699,387.856262 959.516479,389.751129 957.213379,390.642303 
	C953.529541,392.067780 949.660156,393.300995 945.763062,393.822571 
	C939.494202,394.661560 933.306946,389.920624 932.150146,383.889130 
	C929.744995,371.348511 940.069824,351.097443 950.448547,346.011230 
	C958.699402,341.967834 969.963989,344.184509 971.872559,355.403748 
z"/>
<path fill="#E5CFCF" opacity="1.000000" stroke="none" 
	d="
M770.098389,350.563568 
	C769.454346,342.959869 768.415466,342.103607 761.486694,343.108765 
	C754.046814,344.188080 754.047302,344.188110 754.045715,351.802887 
	C754.045471,352.966644 754.032837,354.130432 754.035767,355.294189 
	C754.041260,357.402435 753.240051,358.842255 750.935120,359.005219 
	C748.666382,359.165588 746.494202,359.104126 745.925964,356.217316 
	C745.607971,354.601868 745.028870,352.965912 745.089905,351.359039 
	C745.630737,337.105225 747.205322,323.006195 751.743713,309.375427 
	C752.442871,307.275543 753.299622,305.311829 755.233521,304.145233 
	C759.161804,301.775574 762.422974,302.747894 764.737671,307.684479 
	C770.864380,320.750946 776.416809,334.054016 778.973450,348.384766 
	C779.002563,348.547729 778.992126,348.717560 779.018616,348.881195 
	C779.546143,352.139069 781.892151,356.284637 776.653015,357.477142 
	C771.861023,358.567841 771.432129,354.067932 770.098389,350.563568 
z"/>
<path fill="#E5CFCF" opacity="1.000000" stroke="none" 
	d="
M694.594849,842.802856 
	C694.834595,837.978638 692.191101,836.187683 688.205261,835.987183 
	C685.397827,835.845947 682.604492,835.864929 679.821411,836.809021 
	C676.389465,837.973328 674.147644,839.523376 673.784180,843.653625 
	C673.293030,849.234253 672.118042,854.766663 671.022583,860.277344 
	C670.427795,863.269775 668.907288,865.971313 665.249756,864.760437 
	C662.232361,863.761597 662.207825,861.251770 662.641052,858.215271 
	C664.113770,847.892456 666.483948,837.697021 667.118408,827.248840 
	C667.216492,825.634583 667.794617,823.982910 668.461060,822.486755 
	C669.278198,820.652405 670.862793,819.887207 672.943481,820.007263 
	C674.975403,820.124451 676.316833,821.426697 676.380249,823.051514 
	C676.620605,829.214355 680.485718,827.269775 683.773987,826.578796 
	C691.229248,825.012085 698.764099,828.367554 702.331299,835.002136 
	C703.874512,837.872314 704.537659,841.006897 703.704163,844.177979 
	C701.889832,851.080811 699.944397,857.951782 697.905029,864.791809 
	C696.946838,868.005493 695.226440,871.078430 691.227600,869.784973 
	C687.499817,868.579407 688.147217,865.400452 688.920471,862.288757 
	C690.522339,855.842346 693.573547,849.821594 694.594849,842.802856 
z"/>
<path fill="#E5CFCF" opacity="1.000000" stroke="none" 
	d="
M646.007751,378.724792 
	C643.264038,390.326508 632.451904,396.174866 622.357422,392.731689 
	C619.151489,391.638123 616.764221,389.700836 614.859009,387.242889 
	C608.495728,379.033783 606.466248,365.290771 614.286194,356.433868 
	C619.110413,350.969940 625.899475,349.142120 632.844666,350.630188 
	C640.518188,352.274323 643.774658,358.756104 645.853394,365.607697 
	C647.103455,369.727692 647.597839,374.057922 646.007751,378.724792 
z"/>
<path fill="#E5CFCF" opacity="1.000000" stroke="none" 
	d="
M911.709351,830.495361 
	C915.604309,838.804749 915.851257,846.877136 912.001831,854.798157 
	C908.204102,862.612793 900.315247,866.370178 891.703430,864.916504 
	C885.692871,863.902100 879.009827,857.067322 878.254028,849.782288 
	C877.597717,843.456055 877.232361,837.111206 880.428040,830.821899 
	C885.252747,821.326599 905.756042,817.327209 911.709351,830.495361 
z"/>
<path fill="#E5CFCF" opacity="1.000000" stroke="none" 
	d="
M653.334961,350.655365 
	C652.642578,349.248505 651.699219,349.001709 650.657471,349.030518 
	C648.587158,349.087708 647.080078,348.152832 646.318542,346.297485 
	C645.484070,344.264099 646.507568,342.679718 648.135925,341.599335 
	C651.064087,339.656647 650.116089,336.939331 649.646790,334.409760 
	C648.663818,329.111938 648.327637,323.827881 650.275269,318.719635 
	C653.614136,309.962738 663.855225,305.731018 670.901001,309.958740 
	C673.546692,311.546326 674.924194,313.678009 673.545837,316.564941 
	C672.213745,319.354889 669.893250,319.390533 667.210205,318.101929 
	C663.537781,316.338135 660.610352,317.862701 658.979431,321.186615 
	C656.996521,325.227844 657.668396,329.643402 658.533020,333.870148 
	C659.010986,336.206573 660.904907,336.347168 662.885254,335.568634 
	C665.731384,334.449707 667.941162,335.252258 668.828979,338.150360 
	C669.691040,340.964478 668.416870,343.155823 665.556580,343.904053 
	C661.382874,344.995850 661.647095,347.458649 662.749084,350.764832 
	C664.950195,357.368866 666.916626,364.044250 669.600769,370.487946 
	C670.258423,372.066711 671.522461,373.827454 670.473267,375.685333 
	C669.662292,377.121338 668.593994,378.709869 666.799011,378.762207 
	C664.292786,378.835205 662.919739,376.884766 662.160156,374.862488 
	C659.185852,366.944550 656.388977,358.959991 653.334961,350.655365 
z"/>
<path fill="#E5CFCF" opacity="1.000000" stroke="none" 
	d="
M629.903076,792.113342 
	C632.105103,792.989319 634.008118,793.639709 635.757751,794.576416 
	C637.533630,795.527405 638.377075,797.125000 637.793579,799.194153 
	C637.222717,801.218384 635.911987,802.090027 633.731018,802.063477 
	C630.081787,802.019043 626.963013,800.478271 623.856445,798.900452 
	C620.556702,797.224548 618.519165,797.821594 616.706299,801.341309 
	C611.766846,810.930847 606.264954,820.229248 602.638733,830.460266 
	C601.534851,833.574951 599.473511,835.673584 595.793213,834.327454 
	C591.833801,832.879211 592.997192,829.925232 594.111450,827.287354 
	C598.577393,816.714111 603.419556,806.307312 609.413391,796.506287 
	C610.891602,794.089172 610.799194,793.196106 608.047485,792.440918 
	C605.984985,791.875000 603.984619,790.957336 602.087708,789.949402 
	C600.314575,789.007385 598.587036,787.831787 599.432678,785.274597 
	C600.309082,782.624146 602.167847,781.637634 604.833313,782.020996 
	C607.499023,782.404480 610.013428,783.331238 612.290527,784.712158 
	C614.866760,786.274475 616.601562,785.698425 617.977600,783.145996 
	C618.443542,782.281616 619.113770,781.510193 619.774414,780.771118 
	C621.578491,778.753113 623.762512,778.392822 626.044922,779.771240 
	C628.492371,781.249390 628.164795,783.405273 626.796326,785.369690 
	C624.176208,789.130493 625.542786,791.070557 629.903076,792.113342 
z"/>
<path fill="#E5CFCF" opacity="1.000000" stroke="none" 
	d="
M694.257446,311.549377 
	C698.173096,308.226837 700.835815,308.908752 702.032776,313.231262 
	C702.471680,314.816223 702.805603,316.465271 702.903503,318.102051 
	C703.094666,321.296326 701.967041,325.240234 707.894836,323.217743 
	C710.245544,322.415802 711.646057,324.952515 712.422241,327.021210 
	C713.226807,329.165466 711.938782,330.875031 710.133057,331.316193 
	C704.554565,332.679291 705.138977,335.728088 706.694214,340.079193 
	C708.973145,346.455048 710.313354,353.160522 712.404602,359.611694 
	C713.620117,363.361176 712.060608,365.663727 709.002869,366.693268 
	C705.698853,367.805634 704.115540,365.023254 703.377197,362.420044 
	C701.391541,355.419830 699.670532,348.343536 697.909485,341.281189 
	C697.145203,338.216370 696.280212,336.031555 692.220215,337.623779 
	C689.539978,338.674866 686.322388,338.494843 685.214783,334.952057 
	C684.096619,331.375824 686.414368,329.666382 689.512634,329.030670 
	C694.226135,328.063538 694.644043,324.816193 693.777039,321.094971 
	C693.042664,317.943176 692.521362,314.917389 694.257446,311.549377 
z"/>
<path fill="#E5CFCF" opacity="1.000000" stroke="none" 
	d="
M837.108398,829.450989 
	C838.214722,827.142761 839.373779,824.913269 841.861755,825.301086 
	C844.321106,825.684570 845.759888,827.897644 846.439392,830.158386 
	C849.492188,840.315857 852.189331,850.574890 852.934875,861.203735 
	C853.129761,863.982788 853.369263,865.317505 856.580505,863.814514 
	C861.558716,861.484680 866.965027,861.859802 872.282288,862.033081 
	C875.298157,862.131348 877.780396,863.770325 877.660522,866.704834 
	C877.557190,869.233093 875.253052,871.232727 872.378174,870.946960 
	C865.112915,870.224792 858.704773,872.366516 852.318298,875.623596 
	C847.327576,878.168884 845.402527,877.109070 844.962585,871.181458 
	C843.914856,857.065308 840.927185,843.382446 837.108398,829.450989 
z"/>
<path fill="#E5CFCF" opacity="1.000000" stroke="none" 
	d="
M978.637451,388.676788 
	C977.574341,390.794525 976.791748,392.647430 975.770264,394.357727 
	C973.883362,397.517212 973.078979,400.408630 976.570374,403.119507 
	C978.215393,404.396851 978.455200,406.228333 977.270935,408.029266 
	C975.861938,410.171906 973.815491,410.426605 971.542542,409.722290 
	C966.245117,408.080780 962.793945,401.259277 964.760498,395.536957 
	C967.474060,387.641144 971.719482,380.454956 975.917236,373.278198 
	C979.773621,366.684937 983.718079,360.142548 987.683716,353.614227 
	C989.148254,351.203308 990.905212,348.239685 994.167847,349.945862 
	C997.685059,351.785156 997.932739,355.350067 996.101624,358.635651 
	C993.030640,364.145966 989.626221,369.469299 986.438416,374.915955 
	C983.837891,379.359314 981.348816,383.867950 978.637451,388.676788 
z"/>
<path fill="#E5CFCF" opacity="1.000000" stroke="none" 
	d="
M921.587158,819.307068 
	C925.486694,823.388550 929.039856,827.323608 932.705261,831.151123 
	C933.530273,832.012573 934.287842,833.898193 935.707092,833.072754 
	C936.999695,832.321106 936.985718,830.593750 936.564087,828.994324 
	C935.489014,824.916260 936.041809,820.725342 936.138855,816.601868 
	C936.202209,813.911743 936.321411,810.630981 940.599609,810.950684 
	C944.390381,811.234009 945.011047,813.762085 945.000977,816.894104 
	C944.973145,825.535217 945.059753,834.176819 944.991577,842.817444 
	C944.974304,845.002625 945.863831,847.809753 942.819092,848.782471 
	C940.082031,849.656921 937.432556,848.867188 935.487976,846.812378 
	C930.250183,841.277710 925.142029,835.619751 920.020813,829.975891 
	C918.687500,828.506470 917.375916,826.989197 916.272583,825.347351 
	C915.249878,823.825439 914.292297,821.978271 915.611694,820.262939 
	C917.049133,818.394165 919.020874,817.653748 921.587158,819.307068 
z"/>
<path fill="#E5CFCF" opacity="1.000000" stroke="none" 
	d="
M794.390137,838.337219 
	C795.430847,839.192932 796.460632,839.784790 796.748657,840.629517 
	C797.894592,843.991577 799.586121,844.110352 802.137878,842.020142 
	C803.306458,841.062866 804.883301,840.979614 806.416138,840.938293 
	C808.999207,840.868591 811.868103,840.782471 812.612854,843.782898 
	C813.418091,847.026978 810.439331,848.088013 808.142456,848.741333 
	C804.721680,849.714355 802.473450,852.039978 800.050720,854.322205 
	C798.119507,856.141541 797.897522,858.145447 798.291809,860.653809 
	C799.035034,865.381348 799.529297,870.155518 799.927429,874.927002 
	C800.179382,877.946472 800.346619,881.429016 796.166748,881.795776 
	C792.113464,882.151489 791.038696,879.062378 790.392151,875.713684 
	C789.539856,871.299805 790.083374,866.822754 789.295654,862.348816 
	C788.268066,856.512817 788.477783,850.466003 788.020325,844.520203 
	C787.678223,840.072693 789.535400,837.926758 794.390137,838.337219 
z"/>
<path fill="#AF98AD" opacity="1.000000" stroke="none" 
	d="
M373.790649,551.758423 
	C380.202728,547.259827 386.422516,543.088684 392.931519,538.810425 
	C398.732849,548.034668 401.657379,558.342896 404.358032,569.029053 
	C403.413788,568.790222 402.641785,568.196533 401.878387,567.592041 
	C394.779846,561.970581 392.403748,562.324707 387.088654,569.888184 
	C385.734650,570.760193 384.767700,570.339111 384.195404,569.530334 
	C380.257477,563.965393 375.656372,558.793884 373.790649,551.758423 
z"/>
<path fill="#E5CFCF" opacity="1.000000" stroke="none" 
	d="
M921.322876,338.980713 
	C921.477112,343.867096 923.431396,345.905609 928.172852,345.018585 
	C929.571350,344.756927 931.280273,344.908478 932.547241,345.506073 
	C934.122620,346.249115 935.967346,347.425049 935.540161,349.608856 
	C935.069702,352.013855 933.447449,353.206360 930.829834,353.061859 
	C928.013367,352.906403 925.232422,353.068542 922.443604,353.863983 
	C918.899841,354.874847 916.736267,356.869934 915.908936,360.502960 
	C914.727783,365.689117 913.036499,370.722626 911.002380,375.644714 
	C910.070007,377.900818 908.597717,379.551483 906.109558,378.753754 
	C903.549683,377.933014 901.735657,375.815094 902.597473,373.007050 
	C906.008484,361.892914 909.422485,350.767059 913.357300,339.833374 
	C914.699585,336.103668 918.024292,336.018738 921.322876,338.980713 
z"/>
<path fill="#80593D" opacity="1.000000" stroke="none" 
	d="
M661.502991,562.280518 
	C666.441345,561.874573 669.390137,564.020569 669.877014,568.478577 
	C670.299011,572.343018 668.145752,575.223389 664.435913,576.456909 
	C660.957458,577.613525 658.220642,576.101746 656.377808,573.133606 
	C654.034241,569.359009 655.830200,565.431580 661.502991,562.280518 
z"/>
<path fill="#E5CFCF" opacity="1.000000" stroke="none" 
	d="
M323.922058,477.685730 
	C314.650696,470.385773 307.529205,461.542358 307.842499,448.604828 
	C311.824615,456.960968 314.676727,465.952820 321.725708,472.872925 
	C322.041138,473.000549 321.997986,473.003693 321.999817,472.981750 
	C322.210205,473.235840 322.449341,473.481689 322.925720,473.854248 
	C324.246216,474.913361 323.826752,476.180664 323.922058,477.685730 
z"/>
<path fill="#B09AAD" opacity="1.000000" stroke="none" 
	d="
M125.274467,471.964600 
	C117.835968,460.197937 113.700577,446.797607 109.260971,433.171021 
	C112.734505,437.047852 113.279312,442.490814 115.332390,447.309967 
	C118.771996,455.383606 122.066971,463.518890 125.274467,471.964600 
z"/>
<path fill="#B09AAD" opacity="1.000000" stroke="none" 
	d="
M93.506989,404.157471 
	C96.195068,406.819489 96.155853,410.785004 97.271805,414.345581 
	C100.191269,423.660492 103.056030,432.992523 105.896423,442.696106 
	C102.099358,437.683441 100.936798,431.272369 99.011635,425.198242 
	C96.858528,418.405060 95.247322,411.440125 93.506989,404.157471 
z"/>
<path fill="#B09AAD" opacity="1.000000" stroke="none" 
	d="
M113.707573,464.055664 
	C117.614319,469.539948 119.832474,476.124146 122.991165,482.599304 
	C117.955353,477.728119 116.196404,470.838776 113.707573,464.055664 
z"/>
<path fill="#B09AAD" opacity="1.000000" stroke="none" 
	d="
M123.790421,485.017334 
	C126.072655,486.415833 126.968056,488.851898 127.815460,491.657990 
	C127.538994,492.001953 127.269066,492.000732 126.800949,492.004364 
	C126.006546,489.608887 123.698433,487.972015 123.790421,485.017334 
z"/>
<path fill="#B09AAD" opacity="1.000000" stroke="none" 
	d="
M98.927086,381.542053 
	C96.864151,383.247040 96.864151,383.247040 94.041367,378.393127 
	C96.270309,378.173401 96.498543,381.038422 98.927086,381.542053 
z"/>
<path fill="#B09AAD" opacity="1.000000" stroke="none" 
	d="
M90.963852,375.536926 
	C89.310226,376.029541 87.462830,375.928375 85.468620,376.966797 
	C86.382469,374.383514 88.288872,373.770813 90.963852,375.536926 
z"/>
<path fill="#B09AAD" opacity="1.000000" stroke="none" 
	d="
M106.700089,446.059937 
	C108.247475,446.980225 108.307899,448.828583 108.853622,450.774658 
	C106.894707,450.084045 106.932274,448.141846 106.700089,446.059937 
z"/>
<path fill="#B09AAD" opacity="1.000000" stroke="none" 
	d="
M128.235870,477.995728 
	C126.831154,477.421844 126.463921,476.014893 125.976547,474.380798 
	C127.862213,474.572845 128.237930,476.055298 128.235870,477.995728 
z"/>
<path fill="#B09AAD" opacity="1.000000" stroke="none" 
	d="
M88.450882,398.087769 
	C89.798126,398.119507 90.468353,399.110962 91.029343,400.538879 
	C89.481277,400.781158 88.725204,399.832001 88.450882,398.087769 
z"/>
<path fill="#B09AAD" opacity="1.000000" stroke="none" 
	d="
M109.335793,453.203369 
	C110.350060,453.531403 110.742165,454.461945 110.803680,455.834900 
	C109.526222,455.665466 109.233521,454.676605 109.335793,453.203369 
z"/>
<path fill="#B09AAD" opacity="1.000000" stroke="none" 
	d="
M130.880859,482.160156 
	C129.695267,482.067047 128.982208,481.302673 128.724869,479.791687 
	C129.322708,479.760834 129.929459,480.055573 130.818054,480.566467 
	C131.040741,481.148254 130.981567,481.513855 130.880859,482.160156 
z"/>
<path fill="#B09AAD" opacity="1.000000" stroke="none" 
	d="
M82.940125,388.177155 
	C83.428001,388.495605 83.726128,388.964844 83.976906,389.724426 
	C83.021103,389.812805 82.382851,389.421936 82.940125,388.177155 
z"/>
<path fill="#B09AAD" opacity="1.000000" stroke="none" 
	d="
M104.179001,383.802979 
	C103.681427,383.488525 103.366173,383.009430 103.080711,382.232086 
	C104.118401,382.068329 104.573708,382.608337 104.179001,383.802979 
z"/>
<path fill="#B09AAD" opacity="1.000000" stroke="none" 
	d="
M103.706673,389.152740 
	C103.510651,388.653625 103.529816,388.050537 103.791061,387.242981 
	C104.903839,387.758850 104.399574,388.403046 103.706673,389.152740 
z"/>
<path fill="#B09AAD" opacity="1.000000" stroke="none" 
	d="
M84.619957,392.015594 
	C85.171501,392.281311 85.605736,392.835114 86.018570,393.663330 
	C85.058723,393.795746 84.530212,393.278809 84.619957,392.015594 
z"/>
<path fill="#B09AAD" opacity="1.000000" stroke="none" 
	d="
M86.442299,395.081177 
	C87.011772,395.317993 87.510025,395.857208 87.989288,396.686066 
	C87.025581,396.858490 86.516411,396.303772 86.442299,395.081177 
z"/>
<path fill="#B09AAD" opacity="1.000000" stroke="none" 
	d="
M100.222435,400.814392 
	C99.764435,400.421051 99.490280,399.883362 99.345634,399.044556 
	C100.275429,399.148865 100.658730,399.755829 100.222435,400.814392 
z"/>
<path fill="#B09AAD" opacity="1.000000" stroke="none" 
	d="
M111.655441,459.010223 
	C112.181511,459.347961 112.565399,459.960297 112.870224,460.847565 
	C111.887245,460.842285 111.471939,460.222351 111.655441,459.010223 
z"/>
<path fill="#B09AAD" opacity="1.000000" stroke="none" 
	d="
M103.232285,412.022217 
	C102.386551,411.794312 102.118774,411.118896 102.298607,410.035217 
	C103.217316,410.209351 103.493454,410.895660 103.232285,412.022217 
z"/>
<path fill="#B09AAD" opacity="1.000000" stroke="none" 
	d="
M108.335617,428.993225 
	C107.480034,428.815186 107.214386,428.136078 107.313484,427.050812 
	C108.228897,427.177399 108.501007,427.869049 108.335617,428.993225 
z"/>
<path fill="#B09AAD" opacity="1.000000" stroke="none" 
	d="
M83.043457,379.498474 
	C83.220016,379.509033 83.192825,379.892548 83.113068,379.952637 
	C83.033302,380.012726 82.741600,379.815857 82.741600,379.815857 
	C82.741600,379.815857 82.866898,379.487885 83.043457,379.498474 
z"/>
<path fill="#B09AAD" opacity="1.000000" stroke="none" 
	d="
M106.065399,421.863647 
	C105.912033,421.956207 105.679337,421.562714 105.725555,421.453552 
	C105.771782,421.344391 106.121246,421.426483 106.121246,421.426483 
	C106.121246,421.426483 106.218773,421.771057 106.065399,421.863647 
z"/>
<path fill="#B09AAD" opacity="1.000000" stroke="none" 
	d="
M100.005737,395.517395 
	C99.748734,395.270355 99.816231,395.079071 100.142525,394.867920 
	C100.287971,394.808014 100.464218,395.191589 100.464218,395.191589 
	C100.464218,395.191589 100.216888,395.533081 100.005737,395.517395 
z"/>
<path fill="#AF98AD" opacity="1.000000" stroke="none" 
	d="
M323.031677,473.745911 
	C322.829468,473.825043 322.531555,473.634033 322.117676,473.201385 
	C322.313110,473.131744 322.624542,473.303741 323.031677,473.745911 
z"/>
<path fill="#B09AAD" opacity="1.000000" stroke="none" 
	d="
M106.977249,424.796814 
	C106.835243,424.808868 106.659004,424.637848 106.698212,424.522156 
	C106.737411,424.406464 107.109573,424.418427 107.109573,424.418427 
	C107.109573,424.418427 107.119247,424.784790 106.977249,424.796814 
z"/>
<path fill="#FDFCFC" opacity="1.000000" stroke="none" 
	d="
M154.115799,514.314453 
	C146.487076,506.935028 139.528885,499.443481 135.406830,489.457397 
	C147.150681,464.112823 163.983231,442.736664 182.233475,422.403564 
	C185.637558,418.610992 189.964706,415.599396 194.063522,412.487732 
	C202.694229,405.935608 208.211319,396.671570 215.237488,388.724213 
	C224.025330,378.784241 233.976166,370.548950 248.359650,371.063690 
	C255.584427,371.322205 262.542999,373.146332 268.901733,376.598022 
	C274.148102,379.445923 278.101593,383.462830 279.564728,389.692749 
	C281.672424,398.667175 285.750275,406.908234 290.101013,414.976013 
	C294.692322,423.490021 296.902985,432.418304 297.140228,442.177551 
	C297.703735,465.357452 308.294037,482.207733 329.609436,492.341339 
	C343.332672,498.865631 353.267120,509.089233 358.095367,524.078003 
	C360.373749,531.151123 364.662140,537.477539 369.252563,543.845947 
	C367.450989,547.918030 363.158478,548.531311 359.828400,550.535034 
	C356.566162,552.497864 353.065155,554.063843 349.339661,555.905762 
	C346.395416,556.521545 345.555634,554.422913 344.552490,552.805969 
	C334.309662,536.295044 321.283173,522.024231 308.375031,507.651947 
	C303.254395,501.950531 298.174316,496.177429 293.889618,489.828094 
	C287.559845,480.448151 284.829773,469.820312 284.806519,458.611847 
	C284.789764,450.548920 284.176300,442.658203 281.659271,434.963562 
	C278.945099,426.666260 274.210968,419.705811 267.561829,414.129822 
	C262.414917,409.813568 256.139008,408.064362 249.738754,409.598022 
	C228.132278,414.775482 208.488037,423.643524 193.937347,441.351776 
	C191.045578,444.871033 188.867569,448.825867 187.241013,453.004395 
	C183.235825,463.293427 178.345901,473.086884 172.228561,482.290314 
	C166.303238,491.204987 161.964020,500.940582 157.880325,510.797394 
	C157.219406,512.392639 157.020996,514.555542 154.115799,514.314453 
z"/>
<path fill="#F9F6F9" opacity="1.000000" stroke="none" 
	d="
M171.187973,415.219727 
	C169.601212,417.111572 169.135254,419.420685 166.864456,420.906952 
	C165.164322,416.675629 166.587433,412.872284 167.082474,409.073364 
	C169.024933,394.167053 173.343597,380.210602 182.905502,368.217407 
	C185.439865,365.038605 188.480560,362.529968 191.605835,360.063995 
	C192.705887,359.196045 194.021866,357.686371 195.478333,358.850128 
	C196.566101,359.719177 195.883652,361.340485 195.546036,362.627930 
	C193.304962,371.173859 190.348877,379.460693 186.695068,387.508636 
	C182.352875,397.072937 177.274231,406.218018 171.187973,415.219727 
z"/>
<path fill="#E6CCCB" opacity="1.000000" stroke="none" 
	d="
M153.891174,514.501831 
	C157.252625,513.160950 156.721268,509.668732 157.804352,507.271942 
	C162.873108,496.055237 168.446472,485.157166 175.346207,474.916290 
	C179.616623,468.577942 182.576263,461.477234 185.259781,454.328278 
	C189.487228,443.066254 196.784668,434.182587 206.475250,427.367310 
	C218.497223,418.912231 231.598877,412.542419 245.941635,408.996735 
	C257.910553,406.037933 267.304962,409.675659 274.836456,419.520386 
	C282.627167,429.703949 286.084839,441.244568 285.985535,453.864655 
	C285.895111,465.359222 287.544250,476.373688 293.294952,486.501129 
	C297.174683,493.333679 302.480530,499.135620 307.648621,504.920624 
	C321.702026,520.651489 336.073334,536.089355 346.949188,554.336548 
	C347.272308,554.878662 347.924194,555.224731 348.716614,555.834961 
	C349.030731,558.187378 350.029572,559.928284 351.710663,561.694580 
	C356.484711,569.599548 360.167358,577.748779 365.401337,585.057007 
	C369.925446,591.373962 374.619446,597.599121 378.722534,604.645996 
	C376.075653,618.913757 372.822479,632.771057 368.635681,646.395813 
	C367.855377,648.935059 366.991211,651.442200 366.979950,654.149170 
	C366.965027,657.739746 368.750519,660.254883 371.940643,661.482971 
	C375.267517,662.763672 378.466644,662.284424 381.005981,659.426208 
	C383.545135,656.568176 384.217682,652.938354 385.454956,649.169373 
	C388.177612,650.502197 387.992767,650.481384 387.629639,653.706909 
	C386.284149,665.659302 379.198547,674.167175 370.594360,681.526733 
	C361.194000,689.567322 352.660919,698.340881 344.939728,708.364685 
	C341.642639,710.158936 339.696777,712.408081 340.293152,716.472107 
	C332.784760,725.131958 327.578369,735.202148 319.694183,743.117310 
	C311.014801,751.830750 302.252838,760.516907 289.616119,763.507324 
	C286.395264,764.269470 283.294220,763.841431 280.231384,763.220276 
	C268.217743,760.783630 255.896469,759.965088 244.356201,755.064758 
	C234.558212,750.904236 227.752884,744.435791 223.962402,734.495483 
	C221.119446,727.040100 218.755096,719.412170 215.515579,712.095764 
	C209.956085,699.539551 202.175659,688.765198 190.939972,680.137878 
	C190.786819,677.018738 188.910782,675.856201 186.313599,674.968140 
	C177.301941,667.265686 170.367432,658.130310 164.252945,648.435791 
	C150.235214,626.210815 143.826508,601.814270 143.537033,575.554016 
	C143.335114,557.237488 145.902878,539.458801 151.598785,521.724121 
	C154.098877,519.707825 155.044159,517.580505 153.891174,514.501831 
z"/>
<path fill="#FCFBFB" opacity="1.000000" stroke="none" 
	d="
M344.648743,708.816406 
	C349.997742,698.124207 358.652527,690.637817 367.111511,683.003662 
	C373.508331,677.230530 380.257416,671.679932 383.655121,663.516357 
	C385.503204,659.076172 387.207672,654.361816 386.050537,649.098877 
	C385.801971,648.186340 385.899750,647.469177 386.151581,646.422241 
	C386.585693,645.598816 386.874847,645.108459 386.827179,644.233093 
	C390.609894,626.448364 394.438538,608.944153 398.273682,591.410278 
	C400.219299,591.558960 400.212341,593.240723 401.160278,594.491394 
	C402.082672,600.860962 404.774048,606.512878 405.018188,612.688171 
	C405.380768,621.857666 404.868195,630.885925 402.346527,639.812378 
	C398.153412,654.655396 394.525269,669.656616 393.230621,685.075806 
	C391.889862,701.043884 384.239899,713.575928 372.969452,724.405762 
	C367.825012,729.349121 363.062805,734.690369 358.050720,740.214600 
	C356.863251,740.447815 356.264587,739.756836 355.845673,738.770874 
	C351.721039,729.063232 347.854614,719.259460 344.648743,708.816406 
z"/>
<path fill="#FCFBFB" opacity="1.000000" stroke="none" 
	d="
M379.044861,604.583008 
	C374.453583,601.997864 372.533691,597.027771 369.585785,592.921082 
	C362.771637,583.428467 355.690094,574.032104 352.003693,562.295776 
	C359.036194,558.428040 366.113342,554.941589 373.586731,551.442993 
	C377.487885,557.967773 381.499268,564.174072 386.430878,570.011169 
	C382.275787,580.986511 382.387970,592.967896 379.044861,604.583008 
z"/>
<path fill="#E6CCCB" opacity="1.000000" stroke="none" 
	d="
M386.538513,644.142151 
	C388.050751,644.575928 388.012848,645.266907 386.596741,646.053223 
	C386.302307,645.505493 386.299042,644.918579 386.538513,644.142151 
z"/>
<path fill="#FDFDFD" opacity="1.000000" stroke="none" 
	d="
M151.608582,521.206665 
	C151.542206,528.754761 148.723160,535.575806 147.516602,542.744263 
	C142.250519,574.031921 144.145142,604.397278 157.675308,633.640198 
	C164.174820,647.687683 173.419373,659.645569 183.558380,671.078125 
	C184.428879,672.059570 185.610840,672.817383 185.898972,674.594360 
	C176.660095,687.993225 169.794739,702.323364 163.981689,717.604492 
	C156.695160,716.059875 151.222260,711.114624 145.380051,706.896851 
	C136.651428,700.595398 129.978745,692.307800 123.923584,683.490479 
	C118.742386,675.945801 117.911049,667.053894 116.104782,658.479858 
	C113.054382,644.000061 111.890686,629.285156 111.058250,614.546997 
	C110.790222,609.801453 112.292618,605.354126 114.317673,601.122192 
	C115.897026,597.821777 117.574310,594.562073 119.349724,591.362915 
	C124.633385,581.841919 126.819916,571.854370 126.283325,560.811768 
	C125.523933,545.184082 128.018723,529.687134 130.373001,514.246582 
	C131.023102,509.982910 131.528976,505.697205 132.049896,500.936066 
	C134.574615,500.719940 135.184738,503.121918 136.388855,504.732208 
	C140.826874,510.667328 145.602081,516.262268 151.608582,521.206665 
z"/>
<path fill="#F9F6F9" opacity="1.000000" stroke="none" 
	d="
M110.065910,678.888184 
	C98.160362,660.523193 97.565437,641.176147 103.176598,621.091614 
	C104.305893,642.036499 106.853264,662.709167 114.846703,682.675415 
	C112.143356,682.331482 111.429382,680.481201 110.065910,678.888184 
z"/>
<path fill="#FDFDFD" opacity="1.000000" stroke="none" 
	d="
M190.466034,680.027161 
	C192.896973,679.822937 194.365967,681.022766 195.906616,682.414551 
	C207.557816,692.939880 215.162704,706.023682 220.321487,720.669861 
	C222.584610,727.095032 224.626312,733.596924 227.798615,739.670227 
	C230.505432,744.852234 234.509048,748.547913 239.610153,751.402222 
	C252.266205,758.484009 266.542145,759.086975 280.241119,762.057556 
	C292.344238,764.682129 300.826385,757.990784 309.264893,751.212219 
	C319.465576,743.018005 327.299255,732.778931 334.257538,721.778687 
	C335.482697,719.841858 336.440979,717.127502 339.866028,716.898071 
	C344.197906,727.307556 348.146027,737.762024 352.095154,748.598083 
	C347.490936,753.990784 344.931030,760.410095 340.444275,765.550964 
	C327.011505,780.942017 311.007355,790.166565 290.000885,792.365601 
	C257.016907,795.818604 229.912384,782.797363 204.048752,765.240417 
	C197.023392,760.471375 192.013275,753.405090 187.781204,745.900391 
	C183.267456,737.896179 177.689072,730.687073 169.883759,725.036316 
	C169.769470,717.052124 174.472961,710.725525 177.304001,703.751709 
	C180.673843,695.450745 185.521286,687.874817 190.466034,680.027161 
z"/>
<path fill="#FCFBFB" opacity="1.000000" stroke="none" 
	d="
M884.300232,346.056885 
	C887.620911,345.182251 891.328796,343.058105 893.417419,345.020508 
	C895.472351,346.951141 891.939392,349.983459 891.601990,352.724731 
	C891.582458,352.883179 891.472290,353.028595 891.417969,353.184845 
	C888.479614,361.634216 887.280579,362.438843 878.539978,360.836853 
	C876.437683,360.451538 873.621277,360.444458 873.066467,357.443268 
	C872.566711,354.740021 873.779907,352.517517 875.804016,350.889374 
	C878.253723,348.918945 880.946960,347.273712 884.300232,346.056885 
z"/>
<path fill="#FDFBFB" opacity="1.000000" stroke="none" 
	d="
M835.859131,340.688660 
	C836.688354,336.782349 834.187134,332.252716 839.049500,330.148041 
	C842.552917,328.631561 846.075439,328.259949 849.358398,330.905975 
	C854.326965,334.910431 855.151062,343.096344 851.132629,348.356628 
	C847.669250,352.890442 842.874207,353.442078 837.728943,352.956512 
	C835.691040,352.764221 834.910950,351.394928 834.989685,349.493164 
	C835.105652,346.694855 834.642273,343.836945 835.859131,340.688660 
z"/>
<path fill="#FDFBFB" opacity="1.000000" stroke="none" 
	d="
M801.163818,325.021606 
	C808.892273,325.901917 813.030579,331.487518 811.976990,339.060760 
	C811.076721,345.532379 803.667786,351.092010 797.512756,349.915344 
	C795.314636,349.495178 793.947327,348.475891 793.999023,345.934204 
	C794.100281,340.952698 794.059448,335.967377 794.017334,330.984161 
	C793.978333,326.364716 797.830627,326.241028 801.163818,325.021606 
z"/>
<path fill="#FDFCFC" opacity="1.000000" stroke="none" 
	d="
M715.578613,853.836853 
	C719.779053,848.076660 726.808838,845.436646 732.908752,847.147339 
	C734.758545,847.666077 736.234558,848.377319 735.547424,850.994507 
	C734.454773,855.156250 733.840027,859.440918 732.864258,863.636597 
	C731.825439,868.103638 724.009094,869.879211 718.811523,866.907166 
	C713.689209,863.978149 712.723511,860.381165 715.578613,853.836853 
z"/>
<path fill="#FCFBFB" opacity="1.000000" stroke="none" 
	d="
M959.136597,805.310974 
	C956.956299,807.238525 955.588074,807.744995 954.854797,804.433228 
	C953.979919,800.481384 953.119629,796.727600 955.895447,793.090820 
	C957.033813,791.599304 958.173828,790.726135 960.039001,791.158508 
	C963.191772,791.889404 964.381042,794.478760 965.562256,797.072144 
	C966.327515,798.752136 965.638428,799.836975 964.288330,800.870422 
	C962.587891,802.171997 961.025757,803.654236 959.136597,805.310974 
z"/>
<path fill="#FCFBFB" opacity="1.000000" stroke="none" 
	d="
M640.817505,816.758911 
	C643.495178,814.062256 645.581726,811.124939 649.543884,810.975464 
	C652.142639,810.877441 654.588379,811.552368 654.714966,814.349182 
	C654.843384,817.186829 654.676331,820.863098 651.293457,821.811584 
	C647.764282,822.801147 644.107178,821.299438 640.670044,820.206848 
	C638.528748,819.526184 640.147461,818.120239 640.817505,816.758911 
z"/>
<path fill="#FCFBFB" opacity="1.000000" stroke="none" 
	d="
M759.930420,844.201111 
	C760.912048,842.027405 761.890808,840.296753 763.474976,839.014709 
	C765.472107,837.398315 767.405884,834.796692 770.300781,836.965271 
	C773.318237,839.225647 773.369324,842.679993 772.736450,846.045654 
	C772.452942,847.553772 771.030823,847.902954 769.615173,847.964111 
	C767.475708,848.056458 765.373352,848.122742 763.238098,848.683777 
	C759.605713,849.638123 758.054138,848.336365 759.930420,844.201111 
z"/>
<path fill="#FCFBFB" opacity="1.000000" stroke="none" 
	d="
M950.210022,357.271576 
	C951.455872,356.114075 952.324951,355.032288 953.441833,354.366486 
	C956.296265,352.664948 959.974426,351.594849 962.122009,354.236084 
	C964.495789,357.155640 962.874329,360.877380 960.896606,363.932678 
	C960.074463,365.202606 958.945435,364.771362 957.791504,364.416718 
	C955.577454,363.736328 953.349792,363.086334 951.099365,362.541077 
	C947.297363,361.619873 947.381592,359.883972 950.210022,357.271576 
z"/>
<path fill="#F9F6F9" opacity="1.000000" stroke="none" 
	d="
M765.216064,333.591949 
	C764.740906,333.862152 764.572266,333.945862 764.417969,333.924744 
	C761.358398,333.506012 756.727600,337.348969 755.588013,333.511993 
	C754.266541,329.062408 756.071350,323.781891 758.060608,319.219116 
	C758.787048,317.552826 760.207031,318.382172 760.585449,319.577606 
	C762.060181,324.236420 765.444580,328.210449 765.216064,333.591949 
z"/>
<path fill="#FDFBFB" opacity="1.000000" stroke="none" 
	d="
M625.156128,359.934143 
	C631.072632,358.422668 635.045837,361.262604 637.163269,368.112793 
	C638.820251,373.473267 637.355103,379.947021 633.655273,382.722290 
	C630.707397,384.933502 627.277283,384.585327 624.197998,383.319763 
	C620.889221,381.959900 617.451172,374.021851 618.128418,369.811432 
	C618.806335,365.597595 620.231934,361.712250 625.156128,359.934143 
z"/>
<path fill="#FDFBFB" opacity="1.000000" stroke="none" 
	d="
M901.663086,853.782715 
	C898.119934,856.559753 894.626648,856.859741 891.258972,854.531982 
	C887.009705,851.595093 885.845398,846.976807 886.297913,842.263611 
	C886.615723,838.952881 887.190979,835.271667 890.628296,833.195435 
	C893.716553,831.330017 897.368591,829.611145 900.428894,831.586426 
	C904.256775,834.057129 906.140991,838.441528 905.870483,843.137024 
	C905.653564,846.899963 905.029297,850.735657 901.663086,853.782715 
z"/>
<path fill="#FDFBFB" opacity="1.000000" stroke="none" 
	d="
M219.683014,458.749329 
	C216.368423,461.980469 214.797897,466.037384 215.149109,469.839722 
	C216.660187,486.199249 208.051468,497.869751 198.275726,509.322632 
	C191.609192,517.132874 185.297989,525.266418 179.178284,533.515320 
	C175.860825,537.987061 175.362259,543.682922 174.064438,548.978333 
	C173.867935,549.780090 174.022278,550.737793 173.640381,551.411377 
	C172.348999,553.689148 171.993820,558.098389 168.348724,556.608276 
	C165.084656,555.273987 168.081146,552.359741 168.914597,550.339600 
	C170.583923,546.293518 170.823044,541.953735 171.806458,537.775208 
	C173.988800,528.502563 178.146805,520.266418 184.378189,513.177612 
	C190.596848,506.103271 191.873047,497.421478 192.913040,488.698914 
	C194.841644,472.523468 199.953461,458.073090 213.096024,447.363190 
	C216.685913,444.437775 219.775513,440.908173 222.155029,436.812195 
	C224.215866,433.264832 228.012192,432.858765 231.570877,431.956390 
	C236.165573,430.791382 240.805588,430.937775 245.447067,431.055328 
	C249.055923,431.146759 250.461151,433.717896 251.435837,436.767639 
	C252.365936,439.678070 251.109283,441.532166 248.852768,443.073578 
	C244.669296,445.931274 239.765564,447.058289 235.132050,448.839874 
	C229.425781,451.033905 223.416306,452.772827 219.683014,458.749329 
z"/>
<path fill="#FDFBFB" opacity="1.000000" stroke="none" 
	d="
M255.225937,693.741821 
	C261.141754,699.273621 263.673218,706.422363 266.837921,713.171265 
	C267.614227,714.826782 268.326355,716.470032 269.339142,718.015076 
	C274.232727,725.480408 275.735809,726.224854 284.509857,724.260986 
	C287.613129,723.566406 289.784882,724.555908 291.333954,727.014038 
	C293.017761,729.685913 290.477203,730.936890 289.055695,732.333862 
	C282.728790,738.551636 275.573517,741.587769 266.493134,738.740540 
	C257.769012,736.004944 252.439102,730.384521 249.938248,721.713562 
	C243.844254,700.584534 232.676804,682.978638 214.018448,670.697021 
	C212.044113,669.397400 210.280045,667.920776 208.718506,666.195007 
	C207.458664,664.802673 205.007095,663.549561 206.633209,661.265320 
	C208.475204,658.677734 210.557312,660.866394 212.335648,661.744080 
	C218.180038,664.628418 223.281647,668.679321 228.173996,672.876343 
	C236.747726,680.231506 245.620285,687.159485 255.225937,693.741821 
z"/>
<path fill="#FDFBFB" opacity="1.000000" stroke="none" 
	d="
M355.024597,670.910950 
	C353.130768,673.477234 351.326477,675.658997 348.809814,677.060486 
	C346.824341,678.166260 344.739868,678.621582 342.742096,677.089722 
	C340.701996,675.525330 340.685364,673.407898 341.449463,671.229797 
	C342.765900,667.477478 343.954529,663.658936 345.579559,660.040100 
	C350.856964,648.288025 350.306885,636.288635 347.567841,624.114075 
	C346.589417,619.765198 345.754944,615.378723 345.039948,610.979309 
	C344.850830,609.815674 344.325500,608.064758 345.999146,607.508667 
	C347.251495,607.092468 348.033020,608.431580 348.763336,609.262695 
	C355.038635,616.404114 358.591461,624.869080 360.986664,633.972900 
	C364.434113,647.076050 361.599274,659.089905 355.024597,670.910950 
z"/>
<path fill="#825C42" opacity="1.000000" stroke="none" 
	d="
M246.227020,593.183777 
	C260.671082,595.119141 272.391907,590.427979 282.354065,580.715820 
	C283.067352,580.020386 283.733978,579.252502 284.536713,578.678223 
	C286.511139,577.265625 288.748962,576.094299 290.849426,578.103271 
	C292.997589,580.157837 291.746002,582.403320 290.421997,584.407043 
	C278.682159,602.173401 246.399445,607.887695 229.581497,595.153870 
	C228.404434,594.262634 227.308395,593.169312 226.451004,591.972046 
	C224.963608,589.895081 223.507919,587.491577 226.180252,585.390625 
	C228.476028,583.585693 231.031921,584.108643 232.882477,586.239929 
	C236.343018,590.225525 240.820953,592.113159 246.227020,593.183777 
z"/>
<path fill="#825C42" opacity="1.000000" stroke="none" 
	d="
M256.806793,543.953857 
	C259.703247,548.704468 259.117920,550.627563 254.468903,551.616272 
	C251.401474,552.268616 249.134369,553.577026 248.563492,556.753479 
	C248.033813,559.700745 250.060974,561.250000 252.296631,562.585693 
	C254.896194,564.138855 257.144745,566.182556 255.320099,569.394592 
	C253.227966,573.077637 250.215744,571.346069 247.557907,569.899353 
	C241.213745,566.446106 238.014740,559.208374 240.084793,553.188721 
	C242.558151,545.996338 248.677460,542.472534 256.806793,543.953857 
z"/>
<path fill="#80593D" opacity="1.000000" stroke="none" 
	d="
M272.073303,537.320068 
	C273.283203,532.331482 276.325317,530.209900 280.935608,530.831421 
	C284.813171,531.354126 287.202209,533.818542 287.682373,537.760376 
	C288.230255,542.258118 285.122101,545.965393 280.622009,546.425720 
	C275.738647,546.925171 272.607391,543.748230 272.073303,537.320068 
z"/>
<path fill="#80593D" opacity="1.000000" stroke="none" 
	d="
M212.624008,539.497803 
	C215.957336,534.986755 220.270889,533.766907 223.902557,536.263611 
	C227.438751,538.694702 228.060287,542.145996 226.461273,545.961182 
	C224.940491,549.589722 220.485199,551.364746 216.816299,549.990112 
	C212.669815,548.436646 211.130920,544.842773 212.624008,539.497803 
z"/>
<path fill="#ECACAD" opacity="1.000000" stroke="none" 
	d="
M174.002319,572.075806 
	C174.485397,574.722717 176.202774,576.563904 176.020203,579.048340 
	C175.892166,580.790710 175.795242,582.417358 173.704239,582.874695 
	C171.804184,583.290405 170.273148,582.382202 169.589233,580.818054 
	C167.346008,575.687744 165.289139,570.473633 163.265518,565.251038 
	C162.656616,563.679565 163.190689,562.367065 164.849258,561.600769 
	C167.068100,560.575623 168.888321,561.344482 169.948563,563.201782 
	C171.494293,565.909607 172.642426,568.844299 174.002319,572.075806 
z"/>
<path fill="#ECACAD" opacity="1.000000" stroke="none" 
	d="
M341.877136,568.710938 
	C338.657745,572.770203 337.171021,572.788513 334.988800,568.839966 
	C332.995422,565.233154 330.902161,561.603760 330.145111,557.490479 
	C329.799744,555.613953 329.386780,553.252869 331.799988,552.315002 
	C334.303528,551.341980 336.039246,552.879578 336.917908,555.009155 
	C338.727448,559.395020 340.278717,563.887451 341.877136,568.710938 
z"/>
<path fill="#ECACAD" opacity="1.000000" stroke="none" 
	d="
M193.309479,567.964722 
	C194.020905,570.705505 194.591095,573.107361 194.970383,575.539001 
	C195.244400,577.295837 194.860916,578.931824 192.848404,579.473206 
	C190.677261,580.057312 189.148010,578.863220 188.630325,577.002808 
	C187.518600,573.007568 186.184280,569.135193 184.334579,565.416748 
	C183.723999,564.189331 183.844818,562.824463 185.264679,561.945679 
	C186.638580,561.095276 187.886093,560.848328 189.379349,561.888000 
	C191.448700,563.328735 191.805405,565.757568 193.309479,567.964722 
z"/>
<path fill="#ECACAD" opacity="1.000000" stroke="none" 
	d="
M305.288818,569.740356 
	C303.068298,566.930298 302.058960,563.943054 301.194855,560.923523 
	C300.606262,558.866760 301.681976,557.359619 303.436188,556.423096 
	C305.128418,555.519653 306.258423,556.707092 307.275055,557.815063 
	C309.618835,560.369446 310.570160,563.714111 310.747742,566.886292 
	C310.912750,569.833435 309.144012,572.049377 305.288818,569.740356 
z"/>
<path fill="#ECACAD" opacity="1.000000" stroke="none" 
	d="
M212.675629,576.288818 
	C208.954193,579.364441 207.133713,577.523926 206.086761,574.102478 
	C205.707138,572.861755 205.961533,571.415344 205.528534,570.205200 
	C204.577560,567.547424 205.024078,565.512207 207.838089,564.663208 
	C211.179733,563.654907 211.459747,566.436218 212.316254,568.560791 
	C213.294479,570.987366 213.010269,573.440796 212.675629,576.288818 
z"/>
<path fill="#ECACAD" opacity="1.000000" stroke="none" 
	d="
M326.179626,569.067261 
	C321.934784,569.894531 315.821320,562.865356 317.186432,559.182312 
	C318.213043,556.412476 320.465088,556.303772 322.305817,557.991089 
	C325.383820,560.812622 327.961945,564.083313 326.179626,569.067261 
z"/>
</svg>