<?xml version="1.0" standalone="no"?>
<!DOCTYPE svg PUBLIC "-//W3C//DTD SVG 20010904//EN"
 "http://www.w3.org/TR/2001/REC-SVG-20010904/DTD/svg10.dtd">
<svg version="1.0" xmlns="http://www.w3.org/2000/svg"
 width="494.000000pt" height="494.000000pt" viewBox="0 0 494.000000 494.000000"
 preserveAspectRatio="xMidYMid meet">
<metadata>
Created by potrace 1.14, written by Peter Selinger 2001-2017
</metadata>
<g transform="translate(0.000000,494.000000) scale(0.100000,-0.100000)"
fill="#000000" stroke="none">
<path d="M2080 4921 c-80 -25 -143 -78 -226 -189 -21 -29 -61 -68 -89 -86 -27
-18 -89 -58 -136 -89 -140 -91 -202 -175 -235 -314 -9 -38 -26 -150 -39 -251
-27 -210 -36 -237 -174 -465 -43 -73 -87 -149 -97 -169 -10 -21 -21 -38 -24
-38 -12 0 -105 206 -159 353 -47 124 -141 432 -141 459 0 6 12 35 26 65 22 45
25 58 16 78 -12 26 -31 32 -48 15 -8 -8 -19 0 -38 25 -32 41 -72 47 -102 14
-38 -42 -12 -136 60 -217 24 -27 39 -60 56 -122 57 -215 146 -453 239 -639
l60 -118 -14 -45 c-19 -63 -51 -280 -65 -428 -29 -327 -31 -335 -148 -547
l-72 -129 -19 -149 c-39 -302 -36 -373 19 -494 52 -112 242 -283 480 -432 47
-30 98 -63 112 -74 l27 -20 -25 -95 c-49 -185 -94 -540 -78 -607 19 -80 89
-160 159 -183 76 -25 200 3 226 52 41 76 -134 251 -283 283 -25 5 -28 10 -28
43 0 71 37 286 71 415 13 50 16 47 131 -112 176 -244 239 -297 454 -388 351
-148 631 -198 805 -144 126 40 187 92 339 290 49 65 131 141 151 141 4 0 32
-46 62 -102 128 -242 270 -449 333 -486 32 -19 49 -22 96 -19 106 9 269 119
284 192 14 72 -78 116 -196 95 -67 -12 -153 -47 -200 -80 -15 -11 -33 -20 -39
-20 -24 0 -271 413 -271 452 0 7 37 35 83 63 203 123 255 220 287 541 6 60 24
181 40 269 54 295 60 404 34 637 -18 163 -66 365 -119 494 -20 49 -39 97 -42
107 -4 13 15 37 70 88 42 39 105 109 139 157 92 128 131 177 221 279 63 70 96
98 143 121 118 58 164 119 138 180 -16 38 -51 43 -101 13 -31 -19 -31 -19 -36
0 -7 25 -43 25 -57 -1 -6 -11 -10 -48 -9 -81 l2 -60 -80 -82 c-91 -92 -192
-215 -277 -335 -47 -67 -183 -209 -191 -200 -2 2 -27 44 -56 93 -32 56 -79
117 -123 160 -64 64 -82 75 -185 118 -154 63 -230 108 -305 177 -75 71 -122
153 -131 230 -5 40 -4 51 4 40 6 -8 11 -22 11 -31 0 -24 76 -169 106 -204 30
-34 30 -42 0 90 -9 39 -16 108 -16 155 0 113 -19 182 -84 315 -49 99 -57 125
-81 260 -14 83 -35 193 -45 245 -57 278 -250 452 -499 449 -42 0 -87 -4 -101
-8z m-380 -412 c0 -94 -171 -463 -266 -575 l-25 -29 5 70 c14 201 84 376 192
483 60 58 94 77 94 51z m570 -119 c76 -14 166 -58 200 -96 17 -20 38 -63 51
-106 12 -40 44 -118 71 -173 70 -139 78 -166 89 -288 21 -256 93 -381 276
-483 144 -79 230 -151 266 -219 9 -16 38 -77 65 -135 28 -58 62 -123 76 -146
l25 -40 -102 -54 c-56 -29 -103 -54 -105 -56 -2 -1 4 -14 13 -28 l17 -26 106
55 c59 30 107 53 108 52 18 -22 227 -359 250 -404 69 -137 72 -311 9 -538 -19
-71 -46 -202 -60 -290 -25 -172 -42 -235 -82 -304 -32 -54 -273 -305 -284
-294 -9 10 -79 186 -104 261 l-17 53 -23 -31 -24 -32 29 -83 c17 -45 45 -118
64 -162 l34 -80 -30 -54 c-103 -181 -272 -319 -449 -366 -99 -26 -378 -23
-481 5 -108 29 -196 68 -339 148 -142 80 -235 163 -293 264 -45 76 -130 183
-163 205 -13 9 -23 22 -23 30 0 29 100 250 155 342 55 91 56 95 39 114 -9 10
-20 19 -24 19 -21 0 -147 -230 -201 -365 -13 -33 -24 -62 -26 -64 -4 -6 -135
80 -200 131 -70 55 -172 177 -207 247 -45 89 -94 379 -98 581 l-3 135 49 90
c82 153 87 174 97 405 7 172 26 347 55 507 l6 32 43 -57 c24 -31 68 -81 98
-110 l54 -54 12 33 c11 32 10 35 -38 84 -62 64 -141 172 -141 194 0 80 319
536 465 666 117 104 223 211 290 295 35 44 91 97 133 127 95 68 163 84 272 63z
m-1434 -2759 c8 -47 30 -130 49 -185 l33 -101 -34 40 c-108 123 -147 335 -102
550 l12 60 13 -140 c7 -77 20 -178 29 -224z"/>
<path d="M2465 2828 c-57 -49 -25 -132 51 -132 93 0 100 132 8 150 -24 4 -37
0 -59 -18z"/>
<path d="M1904 2800 c-81 -32 -64 -144 21 -144 27 0 43 6 56 23 49 60 -9 148
-77 121z"/>
<path d="M2225 2719 c-17 -4 -46 -25 -65 -44 -30 -31 -35 -43 -35 -85 0 -57
24 -95 78 -125 70 -38 106 22 43 70 -56 43 -48 85 19 107 48 16 58 47 23 72
-12 9 -25 16 -28 15 -3 0 -19 -5 -35 -10z"/>
<path d="M3011 2626 c-8 -10 -8 -23 3 -53 24 -69 56 -123 72 -123 27 0 27 29
-1 97 -37 94 -50 108 -74 79z"/>
<path d="M2736 2593 c-21 -21 15 -125 47 -131 26 -5 31 22 11 73 -16 44 -44
72 -58 58z"/>
<path d="M2893 2583 c-19 -7 -16 -29 12 -73 42 -66 86 -41 50 27 -20 37 -42
53 -62 46z"/>
<path d="M1397 2544 c-13 -13 -7 -39 27 -119 25 -60 38 -80 52 -80 29 0 27 32
-9 120 -29 73 -51 98 -70 79z"/>
<path d="M1594 2535 c-4 -9 3 -38 15 -65 11 -27 21 -55 21 -63 0 -8 7 -20 16
-27 12 -11 18 -11 31 2 13 14 13 22 3 54 -31 96 -70 141 -86 99z"/>
<path d="M1795 2501 c-7 -12 14 -99 25 -106 16 -10 40 8 40 30 0 41 -21 85
-40 85 -11 0 -21 -4 -25 -9z"/>
<path d="M2524 2349 c-67 -61 -142 -97 -222 -109 -93 -13 -196 11 -232 55 -35
43 -90 38 -90 -8 0 -54 124 -124 237 -134 124 -10 291 54 373 143 41 45 49 71
28 92 -20 20 -36 14 -94 -39z"/>
</g>
</svg>
